<?xml version="1.0" encoding="UTF-8"?>
<!-- Created with Inkscape (http://www.inkscape.org/) -->
<svg width="1920mm" height="1200mm" version="1.1" viewBox="0 0 1920 1200" xmlns="http://www.w3.org/2000/svg">
 <g>
  <path d="m1665.1-80.141 81.103-2.7967 8.3897 682.38-109.07-2.7966z" fill="#ffcd5c"/>
  <path d="m-29.766 128.98s1680.4-71.724 1696.6 77.721c14.2 130.38-271.58 74.134-264.58 132.29 4.9724 41.346 575.47-11.576 575.47-11.576l1.6536 62.839s-799.9 84.5-806.98-36.38 409.41-87.132 408.45-133.95c-2.0893-101.95-1614-44.648-1614-44.648z" fill="#a735ff"/>
  <path d="m326.94 366.35 99.07 3.4721s4.9169-25.34-8.6989-37.821c-12.852-11.781-25.34-10.212-29.879-15.129-4.5386-4.9168-4.1603-19.289-4.1603-19.289s-0.74004 15.234-7.9261 19.395c-7.186 4.1604-27.626 2.1637-38.216 14.645-10.59 12.481-10.19 34.728-10.19 34.728z" fill="#ffcd5c"/>
  <g fill="#a735ff">
   <path d="m365.12 367.7s-1.5566-13.157 3.259-19.774c3.4511-4.7426 11.257-9.8237 11.257-9.8237 0.0815 0.5706 9.6159 5.8855 11.84 12.094 2.6222 7.3185 1.23 18.427 1.23 18.427z"/>
   <path d="m398.59 368.91s-1.2092-9.498 2.3307-15.424c2.4752-4.1437 7.4898-6.9798 7.4898-6.9798s6.3004 2.8205 7.9051 8.5704c1.6046 5.7499 0.77007 14.439 0.77007 14.439z"/>
   <path d="m341.89 366.9 15.949 0.56057s0.66137-11.662-1.0939-15.427c-2.2001-4.7191-6.0298-8.2556-6.0298-8.2556s-4.9448 3.8349-7.6221 8.9592c-2.7493 5.2621-1.2035 14.163-1.2035 14.163z"/>
  </g>
  <path d="m1339.1 595.43 26.872 0.4134 0.6699-54.265 34.364 15.298 12.449-19.024-48.945-24.826s-3.6181-23.274-7.6334-36.246c-10.749-34.727-20.257-54.984-20.257-54.984l113.27 17.363s-23.151-30.592-64.492-38.861c-41.341-8.2682-48.782-1.6536-48.782-1.6536l105.83-32.246s-62.012-33.073-100.87-9.9219c-38.861 23.151-42.168 39.688-42.168 39.688s-49.609-19.844-77.721-3.3073-39.688 31.419-39.688 31.419l96.738-16.536s-44.648 28.939-61.185 54.57-28.112 57.878-28.112 57.878l109.14-95.085s16.123 13.229 25.218 45.475c3.7701 13.367 9.9537 43.651 9.9537 43.651l-43.87 27.446 9.7998 22.863 36.387-21.289z" fill="#46af49"/>
  <g fill="#ffdcb0">
   <path d="m1472.2 221-17.54 36.248 22.217 25.725 17.54-35.079z"/>
   <path d="m244.46 235.41-11.693 19.878 15.201 21.047 10.524-23.386z"/>
   <path d="m896.97-20.245-35.079 46.772 31.571 40.926 28.063-46.772z"/>
  </g>
  <path d="m284.14 297-42.168 252.18 63.665-8.2682 7.4414 46.302-33.232 68.509 15.042 12.52 26.751-46.97 13.12 64.183 19.903-5.696-8.8027-63.74 43.287 20.804 9.8302-15.768-59.44-41.282-8.2682-42.995 68.626-9.095z" fill="#46af49"/>
  <path d="m146.5 442.83s71.328-2.9232 73.666 29.817-69.574 30.402-69.574 30.402l-5.6044 23.976 23.729 22.075-7.5002 8.8822-18.254-12.065-5.9468 26.41-12.975-0.34248 1.1693-28.648-22.217 4.6772-2.8523-10.666 26.894-10.524 3.6792-26.698s-64.312-4.6772-61.973-29.817c2.3386-25.14 77.759-27.479 77.759-27.479z" fill="#46af49"/>
  <path d="m1836.6 462.76-58.465 95.883 58.465 86.529 56.127-98.222z" fill="#ffdcb0"/>
  <path d="m450.62 355.12 43.615-0.20669 8.2682-21.497-13.849 11.162-14.883-21.084-0.2067 19.637-15.296-19.844 1.4469 23.151-16.95-13.022z" fill="#46af49"/>
  <path d="m608.53 268.81s-40.361-0.56058-38.118-22.983c2.2423-22.423 33.634-20.18 49.33-20.18s51.011 2.2423 51.011 19.059c0 16.817-47.648 24.104-47.648 24.104l-0.95089 18.772 20.302 18.033-6.7268 6.7268-13.552-9.7979-0.95088 17.792-9.6019-0.14617-1.3155-17.598-9.6774 9.7979-7.5058-6.2144 15.818-17.059z" fill="#46af49"/>
  <path d="m1524.4 748.5s-18.86 4.2277-27.322 8.6638c-11.355 5.9526-30.416 23.54-30.416 23.54 38.261 11.487 75.074 1.1661 87.467-7.2134 20.609 8.3492 61.871 60.381 121.51 43.131 52.384-15.15 63.385-51.673 49.922-60.241-13.463-8.5677-37.829 18.343-37.829 18.343s13.464-35.495-2.4479-41.614c-15.911-6.1198-35.494 25.703-35.494 25.703s12.24-29.375 1.2239-31.823c-5.3522-1.1894-15.124-0.65564-22.971 3.5866l-3.4445-19.176s28.378-5.4808 40.617-27.512c12.24-22.031 10.95-32.155-2.513-35.827-13.464-3.6718-25.589 14.443-25.589 14.443s7.2298-23.109-12.354-26.78c-19.583-3.6719-25.348 28.459-32.633 52.233l-15.967 6.4109s2.2439-35.168-7.5477-35.168-24.844 15.019-24.844 15.019 1.2239-30.599-12.24-33.047c-13.464-2.4479-24.479 23.255-24.479 23.255s8.2194-31.279-13.812-32.503c-22.031-1.2239-42.49 53.31-22.907 75.341 19.583 22.031 54.066 41.234 54.066 41.234z" fill="#bfd8ff"/>
  <g fill="#46af49">
   <path d="m56.127 305.48 1.1693 11.108 2.7771 0.14616 1.0231-11.547s12.862-0.87699 12.278-8.3313c-0.58465-7.4543-29.086-7.6005-28.209 0.4385 0.87698 8.039 10.962 8.1851 10.962 8.1851z"/>
   <path d="m160.4 217.64c2.058-8.4186-21.891-10.293-20.387 0.52953s18.329 7.8891 20.387-0.52953z"/>
   <path d="m30.402 217.49-19.878 48.526 12.57 2.0463-1.754 21.924 4.0926 1.1693 4.3849-22.509 13.155 0.87699z"/>
   <path d="m960.26 67.553-11.649 36.007h9.8345l0.24908 12.97h5.8467v-12.97h9.4862z"/>
   <path d="m1009 15.661-6.3542 39.184 11.953-1.1953 3.7553 13.769 6.1387-0.58498-2.8727-13.886 12.796-1.2795z"/>
   <path d="m1606.6 334.71 6.7235-21.34 3.8003 15.786 5.8465-14.909 4.0926 17.247 7.6004-19.001 6.1389 27.771z"/>
   <path d="m1735.2 196.47 37.303-4.0913-2.1659-11.793-4.332 8.4233-6.9794-8.1827-2.888 9.6267-8.9046-8.4233-4.0914 9.8673-6.0166-5.776z"/>
   <path d="m1859.8 152.01 1.1693 26.894h9.3544l1.1694-26.309s21.047-2.3386 21.047-16.955c0-14.616-50.28-13.447-49.695 0 0.5846 13.447 16.955 16.37 16.955 16.37z"/>
   <path d="m1602.5 104.65-2.631 21.34 4.3849 0.29233 4.9696-21.632 14.909 0.87698-10.524-44.141-23.386 40.341z"/>
   <path d="m1540.9 66.358 1.1693 31.571 7.3081 0.58465 1.754-30.987 25.725-1.4616s-9.6468-7.3082-16.37-7.3082-9.3544 1.754-9.3544 1.754l23.678-14.032s-15.493-0.87698-20.463 2.0463c-4.9696 2.9233-8.7698 9.9391-8.7698 9.9391s-1.1693-7.0158-9.9391-9.3544c-8.7698-2.3386-23.971 1.4616-23.971 1.4616l27.186 8.1851s-14.909 2.3386-19.001 4.9695c-4.0926 2.6309-8.4775 8.7698-8.4775 8.7698z"/>
  </g>
  <g fill="#bfd8ff">
   <path d="m1171.6 41.158c-0.3988-1.3292-21.841-5.5564-38.034-1.6536-16.88 4.0684-34.727 20.671-34.727 20.671l-23.151-4.1341 16.536 33.073 9.095-21.497s17.363 7.4414 38.034 0c20.67-7.4414 32.246-26.458 32.246-26.458z"/>
   <path d="m1000.4 149.24-5.3743 18.19 17.777-2.8939s22.324 11.162 41.754 11.162c19.43 0 33.073-8.2682 33.073-8.2682s-21.084-12.816-38.034-14.469c-16.95-1.6536-37.207 5.7878-37.207 5.7878z"/>
   <path d="m1265.9 104.18-0.8269-14.056 10.749 4.1341s10.749-4.9609 19.844-6.6146c9.095-1.6536 19.017 3.3073 19.017 3.3073s-14.056 10.749-19.844 10.749c-5.7878 0-20.671-2.4805-20.671-2.4805z"/>
  </g>
  <g fill="#fff">
   <path d="m627.77 80.003s9.1843-23.223 27.257-46.589c18.073-23.366 63.208-50.301 108.22-33.905 45.009 16.396 61.609 57.323 42.86 97.757-18.748 40.434-58.233 49.801-78.711 41.151-12.449-5.2584-19.991-25.75-18.717-37.024 0.86734-7.6737 5.9826-17.52 5.9826-17.52s-16.216 3.2028-22.767 27.451c-3.1513 16.452 1.8131 41.61 30.958 53.971 29.145 12.361 71.543-11.698 87.909-33.312 6.6013-8.7181 23.221-34.298 23.221-34.298l14.076 8.9445c0.87375-1.0922-7.3588 21.051-21.245 42.545-16.343 25.296-62.349 58.871-114.12 42.846-51.774-16.025-59.319-61.607-43.818-95.686 15.501-34.079 61.531-54.475 85.463-44.618 17.822 7.3397 23.407 19.776 22.418 34.517-0.46371 6.9121-9.9936 23.325-9.9936 23.325s16.783-11.33 19.894-31.38c1.5162-14.184-0.4226-42.374-30.657-53.134-30.235-10.759-62.1 6.9093-78.803 21.652-16.704 14.742-31.883 43.003-31.883 43.003z"/>
   <path d="m1812 246.22 15.077 36.47 10.378-37.964 38.12-14.325-40.511-7.3506-18.846-40.083-7.2463 40.615-42.797 13.949z"/>
   <path d="m1413.7 199.95-13.447-10.524 17.54-9.9391 9.3544 13.447z"/>
   <path d="m1388.5 146.16-8.7698-4.0926 7.0158-7.6005 5.8466 6.4312z"/>
   <path d="m1163.5 224.57-64.117-24.934 65.898-12.467 19.591-55.212 14.248 55.212 60.555 21.372-62.336 16.029-23.153 56.993z"/>
   <path d="m399.9 178.9-8.1851 10.524 10.524 4.6772 8.1851-9.3544z"/>
   <path d="m360.58 199.37-8.3313 7.4543 9.0621 6.5773 7.6005-8.039z"/>
   <path d="m324.04 160.34-5.7004 6.7235 6.7235 4.2387 5.7003-5.2619z"/>
   <path d="m34.494 40.926-9.9391-8.1851 9.9391-9.3544 9.3544 11.693z"/>
   <path d="m123.95 398.15-18.709-8.7698 21.047-5.8465 10.524-23.971 5.2619 25.14 22.217 8.7698-25.14 7.0158-9.3544 21.632z"/>
   <path d="m1340 631.42-19.878 25.725 25.725 9.3544 10.524-18.709z"/>
   <path d="m1439.4 717.95-12.862 15.201 18.709 9.3544 8.1851-15.201z"/>
   <path d="m1690.6 861.94-24.555 16.37 16.37 17.54 24.555-19.878z"/>
   <path d="m1593.6 921.58-8.1851 11.693 16.37 7.0158 4.6773-12.862z"/>
   <path d="m1721 919.24-14.032 40.926-39.756 8.1852 43.264 16.37 11.693 36.248 10.524-36.248 38.587-14.032-40.926-15.201z"/>
  </g>
  <g fill="#bfd8ff">
   <path d="m120.03 46.921 10.524 19.294 16.955-16.955-15.786 5.2619z"/>
   <path d="m363.07 16.37 21.047 24.555 15.201-4.6772-9.9391-7.0158 9.9391-19.878-18.124 16.37z"/>
   <path d="m418.61 74.251-8.1851-9.9391 14.032 4.6772 12.278-4.0926-8.1851 11.693z"/>
   <path d="m463.41 54.957-16.151-7.0158h15.201l9.3544-7.6005z"/>
  </g>
 </g>
</svg>
